HIERARCHY
ROOT joint_Root
{
	OFFSET 0.0 0.0 0.0
	CHANNELS 6 Xposition Yposition Zposition Zrotation Xrotation Yrotation 
	JOINT Hips
	{
		OFFSET -0.726466 93.3139 -2.00062
		CHANNELS 6 Xposition Yposition Zposition Zrotation Xrotation Yrotation 
		JOINT Spine
		{
			OFFSET 15.7357 0.0 0.0
			CHANNELS 6 Xposition Yposition Zposition Zrotation Xrotation Yrotation 
			JOINT Chest
			{
				OFFSET 8.98455 -0.406207 0.0
				CHANNELS 6 Xposition Yposition Zposition Zrotation Xrotation Yrotation 
				JOINT Neck
				{
					OFFSET 16.3773 0.0 0.0
					CHANNELS 6 Xposition Yposition Zposition Zrotation Xrotation Yrotation 
					JOINT Head
					{
						OFFSET 6.45672 0.0 0.0
						CHANNELS 6 Xposition Yposition Zposition Zrotation Xrotation Yrotation 
						End Site
						{
							OFFSET 0.0 0.0 0.0
						}
					}
				}
				JOINT Shoulder_L
				{
					OFFSET 12.9942 -0.242716 4.98039
					CHANNELS 6 Xposition Yposition Zposition Zrotation Xrotation Yrotation 
					JOINT UpperArm_L
					{
						OFFSET 5.34809 0.0 0.0
						CHANNELS 6 Xposition Yposition Zposition Zrotation Xrotation Yrotation 
						JOINT LowerArm_L
						{
							OFFSET 24.3286 1.87007e-05 0.0
							CHANNELS 6 Xposition Yposition Zposition Zrotation Xrotation Yrotation 
							JOINT Hand_L
							{
								OFFSET 22.2916 0.0 0.0
								CHANNELS 6 Xposition Yposition Zposition Zrotation Xrotation Yrotation 
								End Site
								{
									OFFSET 0.0 0.0 0.0
								}
							}
						}
					}
				}
				JOINT Shoulder_R
				{
					OFFSET 12.9945 -0.242716 -4.98039
					CHANNELS 6 Xposition Yposition Zposition Zrotation Xrotation Yrotation 
					JOINT UpperArm_R
					{
						OFFSET -5.34813 0.0 0.0
						CHANNELS 6 Xposition Yposition Zposition Zrotation Xrotation Yrotation 
						JOINT LowerArm_R
						{
							OFFSET -24.3289 0.000322201 0.0
							CHANNELS 6 Xposition Yposition Zposition Zrotation Xrotation Yrotation 
							JOINT Hand_R
							{
								OFFSET -22.2915 -0.000108084 0.0
								CHANNELS 6 Xposition Yposition Zposition Zrotation Xrotation Yrotation 
								End Site
								{
									OFFSET 0.0 0.0 0.0
								}
							}
						}
					}
				}
			}
		}
		JOINT UpperLeg_L
		{
			OFFSET -2.19248 -6.46944 0.0
			CHANNELS 6 Xposition Yposition Zposition Zrotation Xrotation Yrotation 
			JOINT LowerLeg_L
			{
				OFFSET 39.0811 0.0 -1.23785e-05
				CHANNELS 6 Xposition Yposition Zposition Zrotation Xrotation Yrotation 
				JOINT Foot_L
				{
					OFFSET 40.9854 0.0 -1.26872e-05
					CHANNELS 6 Xposition Yposition Zposition Zrotation Xrotation Yrotation 
					JOINT Toes_L
					{
						OFFSET 11.7543 0.0 0.0
						CHANNELS 6 Xposition Yposition Zposition Zrotation Xrotation Yrotation 
						End Site
						{
							OFFSET 0.0 0.0 0.0
						}
					}
				}
			}
		}
		JOINT UpperLeg_R
		{
			OFFSET -2.19251 6.46944 0.0
			CHANNELS 6 Xposition Yposition Zposition Zrotation Xrotation Yrotation 
			JOINT LowerLeg_R
			{
				OFFSET -39.0811 -0.00228153 -0.0401928
				CHANNELS 6 Xposition Yposition Zposition Zrotation Xrotation Yrotation 
				JOINT Foot_R
				{
					OFFSET -40.9854 0.0 0.0
					CHANNELS 6 Xposition Yposition Zposition Zrotation Xrotation Yrotation 
					JOINT Toes_R
					{
						OFFSET -11.7543 0.0 0.0
						CHANNELS 6 Xposition Yposition Zposition Zrotation Xrotation Yrotation 
						End Site
						{
							OFFSET 0.0 0.0 0.0
						}
					}
				}
			}
		}
	}
}
MOTION
Frames:	6
Frame Time:	0.0333333
0.000000 0.000000 0.000000 0.000000 0.000000 -0.000000 0.766094 85.056200 -20.788800 88.858100 3.926480 -5.976850 15.735700 0.000005 -0.000001 75.889800 79.117500 -75.582300 8.984550 -0.406207 -0.000000 13.397000 -5.234680 1.230610 16.377300 -0.000001 -0.000001 4.404170 -1.121390 -0.551226 6.456720 -0.000001 -0.000000 -2.185980 1.842350 0.395178 12.994200 -0.242716 4.980390 -86.922100 -7.711300 -68.161300 5.348090 -0.000007 -0.000001 -53.953700 10.488000 -16.767200 24.328600 0.000019 0.000005 -10.519600 -4.385990 -67.616700 22.291600 -0.000001 0.000005 2.680350 5.596220 -11.116500 12.994500 -0.242716 -4.980390 89.403500 1.215360 -63.853200 -5.348130 -0.000001 -0.000004 -57.512500 25.981800 -2.547460 -24.328900 0.000322 -0.000009 -5.556070 -4.719750 -49.759200 -22.291500 -0.000108 -0.000004 -0.823621 5.637280 -13.897800 -2.192480 -6.469440 -0.000000 179.103000 -5.803030 -17.233600 39.081100 -0.000007 -0.000012 0.145287 -0.127904 48.640100 40.985400 -0.000006 -0.000013 5.477500 -5.800390 -87.456700 11.754300 -0.000000 0.000003 -0.780172 -0.969210 -16.362000 -2.192510 6.469440 -0.000001 -177.478000 7.373440 138.554000 -39.081100 -0.002282 -0.040193 -0.174166 -0.065017 110.093000 -40.985400 0.000008 0.000006 4.852290 -10.390900 -43.009900 -11.754300 -0.000006 -0.000006 -0.019212 -0.162884 -23.226500
0.000000 0.000000 0.000000 0.000000 0.000000 -0.000000 0.256399 88.353600 -11.055400 86.146700 7.228430 -6.918680 15.735700 0.000005 -0.000001 70.514800 79.080300 -68.487100 8.984550 -0.406207 -0.000000 13.026400 -7.119360 4.873470 16.377300 -0.000001 -0.000001 4.588380 -1.811550 -0.733165 6.456720 -0.000001 -0.000000 -2.569690 2.950680 -0.113345 12.994200 -0.242716 4.980390 -86.814000 -8.664810 -69.720800 5.348090 -0.000007 -0.000001 -54.745200 10.426900 -18.347500 24.328600 0.000019 0.000005 -9.616780 -3.243990 -71.533500 22.291600 -0.000001 0.000005 3.299960 5.612740 -12.130400 12.994500 -0.242716 -4.980390 89.683200 0.607171 -62.440900 -5.348130 -0.000001 -0.000004 -59.199200 26.981300 2.569010 -24.328900 0.000322 -0.000009 -6.023110 -4.636800 -52.538600 -22.291500 -0.000108 -0.000004 -1.692370 5.632060 -13.490300 -2.192480 -6.469440 -0.000000 -175.976000 -3.354380 -8.054840 39.081100 -0.000007 -0.000012 0.038585 -0.049646 37.853600 40.985400 -0.000006 -0.000013 4.270000 -3.066910 -74.814300 11.754300 -0.000000 0.000003 -0.030991 -0.221982 -25.673400 -2.192510 6.469440 -0.000001 -172.397000 7.638130 133.765000 -39.081100 -0.002282 -0.040193 -0.130772 -0.018032 97.621700 -40.985400 0.000008 0.000006 3.793140 -12.627000 -49.778200 -11.754300 -0.000006 -0.000006 -0.018538 -0.159054 -23.068800
0.000000 0.000000 0.000000 0.000000 0.000000 -0.000000 -0.204495 91.976200 -1.634550 84.577400 10.322100 -8.876340 15.735700 0.000005 -0.000001 65.253800 79.404800 -61.873400 8.984550 -0.406207 -0.000000 11.845500 -8.676610 7.671170 16.377300 -0.000001 -0.000001 4.762710 -2.343230 -0.853969 6.456720 -0.000001 -0.000000 -3.022270 3.414660 -0.095873 12.994200 -0.242716 4.980390 -86.552500 -9.898150 -70.685700 5.348090 -0.000007 -0.000001 -57.318700 10.868300 -19.360700 24.328600 0.000019 0.000005 -10.432400 -3.083970 -73.710200 22.291600 -0.000001 0.000005 4.483960 5.629910 -13.325300 12.994500 -0.242716 -4.980390 90.238000 -0.437516 -61.463200 -5.348130 -0.000001 -0.000004 -62.346500 25.595800 7.828000 -24.328900 0.000322 -0.000009 -5.307910 -3.974380 -53.270000 -22.291500 -0.000108 -0.000004 -2.360400 5.629620 -13.306700 -2.192480 -6.469440 -0.000000 -171.559000 -5.463510 -2.831750 39.081100 -0.000007 -0.000012 0.014123 -0.025560 28.920900 40.985400 -0.000006 -0.000013 3.218080 2.999070 -56.236200 11.754300 -0.000000 0.000003 -0.145315 -0.545415 -39.615400 -2.192510 6.469440 -0.000001 -169.652000 7.801220 131.475000 -39.081100 -0.002282 -0.040193 -0.026684 0.005687 79.119300 -40.985400 0.000008 0.000006 2.721860 -11.936100 -55.093100 -11.754300 -0.000006 -0.000006 -0.019083 -0.162154 -23.196400
0.000000 0.000000 0.000000 0.000000 0.000000 -0.000000 -0.257216 94.929000 7.740880 85.572000 12.087200 -10.290600 15.735700 0.000005 -0.000001 60.512800 79.512800 -56.743100 8.984550 -0.406207 -0.000000 10.966300 -10.145400 8.527970 16.377300 -0.000001 -0.000001 5.495130 -2.398520 -1.169760 6.456720 -0.000001 -0.000000 -4.157050 3.804380 -0.311008 12.994200 -0.242716 4.980390 -86.499400 -10.445900 -71.355400 5.348090 -0.000007 -0.000001 -60.576000 10.778400 -19.106200 24.328600 0.000019 0.000005 -10.905500 -2.937780 -75.104400 22.291600 -0.000001 0.000005 4.185630 5.630960 -13.406000 12.994500 -0.242716 -4.980390 90.909300 -1.667510 -61.389100 -5.348130 -0.000001 -0.000004 -65.499100 22.680500 12.415200 -24.328900 0.000322 -0.000009 -4.657780 -3.484860 -53.267100 -22.291500 -0.000108 -0.000004 -2.726270 5.627390 -13.143200 -2.192480 -6.469440 -0.000000 -168.564000 -12.307100 1.563770 39.081100 -0.000007 -0.000012 0.050953 -0.128490 21.630900 40.985400 -0.000006 -0.000013 -2.159250 10.078500 -36.426000 11.754300 -0.000000 0.000003 -0.073663 -0.373844 -32.071800 -2.192510 6.469440 -0.000001 -170.580000 9.018070 133.901000 -39.081100 -0.002282 -0.040193 0.028046 -0.016790 55.927600 -40.985400 0.000008 0.000006 0.831768 -5.715850 -58.894700 -11.754300 -0.000006 -0.000006 -0.020616 -0.170677 -23.547500
0.000000 0.000000 0.000000 0.000000 0.000000 -0.000000 0.072683 95.834900 17.644800 87.792400 13.095900 -11.299300 15.735700 0.000005 -0.000001 55.336100 79.469600 -51.757300 8.984550 -0.406207 -0.000000 10.099400 -11.832800 8.222300 16.377300 -0.000001 -0.000001 5.849420 -2.100950 -1.365950 6.456720 -0.000001 -0.000000 -4.438180 4.448950 -1.019510 12.994200 -0.242716 4.980390 -86.426800 -10.708200 -71.423700 5.348090 -0.000007 -0.000001 -63.501300 10.665700 -17.188300 24.328600 0.000019 0.000005 -10.621700 -2.598700 -76.408000 22.291600 -0.000001 0.000005 3.878780 5.630770 -13.393900 12.994500 -0.242716 -4.980390 91.443900 -2.643670 -61.343600 -5.348130 -0.000001 -0.000004 -67.099000 21.186300 15.355600 -24.328900 0.000322 -0.000009 -4.390740 -3.246680 -53.580000 -22.291500 -0.000108 -0.000004 -3.084990 5.624120 -12.907600 -2.192480 -6.469440 -0.000000 -167.080000 -15.255400 4.790160 39.081100 -0.000007 -0.000012 0.089745 -0.229129 21.389400 40.985400 -0.000006 -0.000013 -4.803160 6.928350 -29.936100 11.754300 -0.000000 0.000003 -0.005116 -0.062589 -19.123400 -2.192510 6.469440 -0.000001 -172.677000 11.696700 139.039000 -39.081100 -0.002282 -0.040193 -0.004988 0.013733 31.110700 -40.985400 0.000008 0.000006 -4.782020 2.080620 -60.661000 -11.754300 -0.000006 -0.000006 -0.022549 -0.181020 -23.974000
0.000000 0.000000 0.000000 0.000000 0.000000 -0.000000 0.518156 95.114800 28.186200 91.278500 14.558900 -11.812500 15.735700 0.000005 -0.000001 49.398300 79.201400 -46.574900 8.984550 -0.406207 -0.000000 9.188360 -13.948400 6.790320 16.377300 -0.000001 -0.000001 5.717860 -2.108060 -1.562990 6.456720 -0.000001 -0.000000 -3.540120 4.951090 -1.161370 12.994200 -0.242716 4.980390 -86.249300 -11.197600 -71.346300 5.348090 -0.000007 -0.000001 -65.677800 11.568200 -14.425600 24.328600 0.000019 0.000005 -12.395700 -3.019720 -76.522300 22.291600 -0.000001 0.000005 4.962190 5.636230 -13.812800 12.994500 -0.242716 -4.980390 91.541100 -2.737220 -60.603700 -5.348130 -0.000001 -0.000004 -66.977800 21.951800 16.525600 -24.328900 0.000322 -0.000009 -4.522790 -3.304230 -53.913400 -22.291500 -0.000108 -0.000004 -3.036400 5.622400 -12.785800 -2.192480 -6.469440 -0.000000 -166.983000 -14.264500 7.042350 39.081100 -0.000007 -0.000012 0.102346 -0.191971 28.063500 40.985400 -0.000006 -0.000013 -0.888708 -1.102720 -36.658400 11.754300 -0.000000 0.000003 -0.006118 -0.071915 -19.503700 -2.192510 6.469440 -0.000001 -175.305000 15.849000 144.044000 -39.081100 -0.002282 -0.040193 -0.016959 0.097661 11.739600 -40.985400 0.000008 0.000006 -9.977890 5.335250 -63.340300 -11.754300 -0.000006 -0.000006 -0.026587 -0.201374 -24.815200
